PathFileType	4	(X/Y/Z)	C:/Users/beibeiliu/ov580/test_trc/User3\sequence.12_training_dense_left.trc
DataRate	CameraRate	NumFrames	NumMarkers	Units	OrigDataRate	OrigDataStartFrame	OrigNumFrames
120	120	13	19	mm	120	32	250
Frame#	Time	ThumbCMC			ThumbMCP			ThumbIP			ThumbTip			IndexMCP			IndexPIP			IndexTip			MiddleMCP			MiddlePIP			MiddleTip			RingMCP			RingPIP			RingTip			PinkyMCP			PinkyPIP			PinkyTip			BackHand1			BackHand2			BackHand3	
		X0	Y0	Z0	X1	Y1	Z1	X2	Y2	Z2	X3	Y3	Z3	X4	Y4	Z4	X5	Y5	Z5	X6	Y6	Z6	X7	Y7	Z7	X8	Y8	Z8	X9	Y9	Z9	X10	Y10	Z10	X11	Y11	Z11	X12	Y12	Z12	X13	Y13	Z13	X14	Y14	Z14	X15	Y15	Z15	X16	Y16	Z16	X17	Y17	Z17	X18	Y18	Z18	
31	0.258333	-143.49	-24.5437	25.9135	-122.655	-25.4426	1.84692	-115.419	-28.7215	-23.0009	-102.666	-32.5101	-43.5482	-148.432	-20.5387	-55.1058	-142.779	-20.5952	-76.1784	-141.972	-16.5474	-102.113	-166.195	-19.1087	-63.9256	-162.077	-20.9307	-88.5807	-155.929	-17.3074	-117.52	-187.744	-25.2801	-55.3086	-182.945	-25.9469	-76.2904	-179.137	-24.327	-104.111	-206.272	-31.1104	-38.9238	-204.15	-30.7591	-63.076	-200.802	-29.7765	-81.6175	-194.104	-7.92755	-7.98944	-196.264	-3.07807	22.5338	-159.839	-5.2	7.25317	
32	0.266667	-144.533	-23.1133	23.6163	-126.845	-23.3341	1.39875	-115.343	-26.6608	-26.4747	-111.139	-31.1256	-47.5908	-148.139	-18.7273	-51.3758	-147.95	-18.4315	-78.6465	-149.087	-14.8337	-103.327	-171.015	-18.2088	-61.516	-166.679	-18.3005	-87.2397	-159.92	-16.5212	-116.945	-186.825	-22.3007	-55.3137	-186.661	-22.9448	-76.8836	-183.478	-22.8176	-103.316	-208.521	-30.1178	-41.5024	-202.055	-30.1938	-62.1588	-200.755	-28.7118	-85.763	-196.855	-7.25546	-9.49534	-198.079	-2.49546	21.9642	-168.023	-4.68798	7.50794	
33	0.275	-143.616	-20.5005	24.2607	-128.019	-20.8949	-1.62729	-120.296	-24.2442	-32.9469	-115.984	-29.4263	-49.1767	-155.271	-17.2495	-53.5468	-154.019	-15.5857	-79.2006	-153.442	-12.6573	-104.606	-171.447	-15.7666	-64.7346	-169.593	-16.184	-87.7923	-164.523	-13.7548	-115.539	-188.54	-20.6812	-58.1355	-188.679	-21.1888	-78.1681	-186.456	-19.7213	-106.522	-209.502	-27.1014	-45.2163	-204.329	-28.821	-63.624	-206.757	-25.0714	-84.345	-195.366	-5.68674	-9.68423	-199.913	-0.672203	17.1936	-168.786	-0.910212	5.23519	
34	0.283333	-147.65	-19.7936	23.2755	-129.625	-20.9493	-1.51827	-124.262	-23.3501	-30.0734	-121.671	-27.2008	-52.8657	-155.306	-14.3062	-53.5238	-156.644	-13.1232	-83.456	-157.828	-9.90292	-102.448	-173.813	-12.1062	-66.2423	-173.297	-13.0008	-91.2456	-168.677	-9.94404	-121.379	-193.871	-17.6865	-57.4261	-188.475	-17.0832	-80.9413	-189.341	-16.2581	-107.742	-212.598	-26.6369	-40.3141	-207.288	-25.3201	-65.0953	-205.104	-22.8275	-85.9654	-197.47	-4.02639	-9.49483	-203.044	0.95415	21.2185	-171.765	0.335791	4.94393	
35	0.291667	-147.83	-19.7793	23.8346	-134.195	-18.3436	-5.74188	-129.496	-21.2022	-31.7245	-126.539	-25.9892	-55.261	-156.661	-10.7109	-55.9021	-154.924	-9.79959	-84.6251	-158.728	-7.65374	-103.688	-180.296	-10.3096	-67.4529	-174.356	-11.1181	-91.7236	-170.549	-6.71187	-119.996	-196.87	-15.9023	-58.6547	-192.66	-14.6705	-82.7611	-191.335	-14.2005	-105.786	-212.972	-22.0176	-45.775	-209.496	-22.5258	-66.7189	-210.902	-21.7625	-85.4401	-202.154	-1.82844	-12.0242	-206.465	3.03682	18.7537	-173.072	0.303135	6.72494	
36	0.3	-149.478	-17.3341	22.2738	-137.476	-16.2344	-6.35022	-131.638	-18.831	-32.8077	-124.116	-22.264	-57.516	-163.505	-9.86948	-57.1724	-162.511	-8.51796	-80.1891	-165.603	-5.68556	-104.914	-181.412	-8.04783	-65.3895	-176.747	-8.82022	-89.1095	-178.798	-5.62351	-118.761	-199.288	-14.3798	-57.3193	-196.2	-14.3286	-79.2142	-193.281	-11.2095	-109.918	-212.951	-21.3508	-46.1709	-210.196	-21.7661	-65.7962	-212.747	-19.4662	-89.2333	-206.784	-1.54348	-8.94619	-207.725	4.26677	17.4769	-175.455	2.11098	5.55461	
37	0.308333	-153.323	-16.363	19.2033	-139.391	-14.095	-8.46606	-133.056	-17.5184	-33.4227	-126.186	-20.4771	-57.189	-165.987	-7.70789	-61.719	-164.416	-6.1236	-84.6093	-164.411	-3.53501	-108.25	-185.802	-7.45469	-64.542	-182.331	-7.64437	-91.0873	-182.48	-4.77346	-119.848	-202.97	-13.3418	-58.6633	-196.594	-12.2915	-84.1105	-200.175	-9.72473	-111.563	-219.116	-20.81	-42.5271	-216.452	-21.4534	-65.5289	-212.191	-17.9978	-84.7186	-204.327	-0.264735	-7.24657	-213.13	4.35419	18.524	-173.73	4.39569	3.49872	
38	0.316667	-156.445	-14.89	19.0497	-137.264	-13.8021	-6.92471	-131.78	-15.2117	-36.2361	-131.031	-21.0681	-55.8777	-165.342	-6.22954	-57.7962	-161.955	-4.86945	-85.6593	-168.245	-2.41969	-108.467	-182.229	-5.32838	-65.5289	-183.238	-6.61496	-92.7239	-183.647	-2.95409	-124.015	-200.206	-11.9922	-60.7527	-199.439	-11.5916	-83.1629	-200.214	-10.0689	-108.45	-217.386	-20.367	-45.9073	-218.634	-20.6717	-66.433	-216.959	-17.3556	-91.6623	-209.128	-0.989162	-8.63085	-209.221	4.87703	17.7949	-175.198	6.8963	4.16779	
39	0.325	-158.033	-14.2604	18.9997	-142.882	-14.2957	-4.90267	-134.468	-14.5819	-38.2162	-131.445	-18.3581	-62.5995	-167.013	-5.13369	-62.8399	-164.385	-4.33095	-82.6967	-167.162	-1.72539	-110.387	-187.658	-4.84622	-69.5837	-184.407	-6.40967	-94.9758	-184.447	-4.22582	-120.364	-200.402	-11.1452	-60.2124	-200.973	-11.6143	-84.7491	-202.908	-8.91539	-111.525	-218.835	-18.9742	-48.5837	-217.888	-20.0244	-68.6655	-216.249	-19.3599	-92.3166	-207.086	2.7147	-9.46387	-213.074	4.60344	17.7016	-175.765	6.94357	6.38792	
40	0.333333	-152.619	-13.2843	18.2811	-141.936	-12.6493	-7.82078	-133.792	-13.044	-37.3102	-129.91	-17.375	-60.3605	-168.316	-3.8085	-62.4114	-164.483	-4.51742	-85.1599	-169.36	-2.76812	-108.115	-186.764	-4.75502	-68.6399	-183.927	-6.24903	-92.6232	-178.572	-4.06303	-122.483	-203.708	-10.7056	-60.9918	-200.917	-10.2652	-83.2403	-199.237	-9.32956	-111.865	-217.57	-18.1159	-44.9235	-219.01	-19.7848	-67.3929	-214.299	-16.6462	-89.2767	-211.25	2.17261	-12.6323	-212.66	5.74	18.397	-179.188	8.39901	5.56958	
41	0.341667	-152.685	-12.0078	19.606	-142.11	-14.442	-4.19922	-132.901	-13.8601	-39.1906	-133.486	-17.5457	-60.6447	-165.134	-4.05406	-59.0851	-164.049	-4.28435	-82.0434	-169.149	-4.00424	-106.419	-186.588	-4.21936	-69.2845	-182.743	-5.75144	-93.0617	-183.7	-4.83647	-122.428	-204.587	-10.1004	-60.1084	-198.622	-10.9222	-82.6275	-197.324	-10.3857	-109.29	-220.625	-17.54	-47.5	-217.175	-19.3054	-68.3281	-216.205	-17.2835	-92.7529	-208.663	2.81322	-10.4963	-209.478	6.03679	18.6131	-176.442	8.26976	7.58134	
42	0.35	-154.399	-12.9062	16.8926	-137.683	-12.1964	-6.1535	-137.526	-14.5027	-38.606	-135.405	-19.404	-58.7995	-162.245	-2.92852	-58.9698	-163.497	-4.94614	-86.1911	-166.559	-3.50265	-111.657	-184.978	-4.55255	-70.4488	-184.093	-6.07334	-93.961	-178.806	-4.2183	-125.454	-203.308	-10.8104	-60.0254	-202.993	-11.4978	-85.2766	-198.642	-10.5217	-109.571	-219.583	-17.5398	-47.1772	-215.571	-18.5692	-68.1903	-213.361	-16.8627	-89.7444	-207.342	3.89418	-7.98118	-210.466	6.30855	19.8766	-176.96	8.29109	7.35367	
43	0.358333	-152.779	-12.5167	18.8346	-141.447	-12.7412	-6.79889	-134.733	-15.2181	-34.7371	-134.511	-20.1765	-61.987	-167.204	-4.32874	-60.5142	-161.568	-4.17679	-82.9065	-166.425	-3.41607	-106.683	-186.282	-4.87644	-66.4442	-180.305	-5.55644	-95.1242	-180.547	-5.6152	-122.165	-200.944	-10.5005	-63.0079	-200.801	-11.1178	-81.9293	-201.811	-10.7405	-109.819	-215.21	-16.388	-47.9178	-215.728	-18.353	-67.1373	-214.108	-16.7159	-86.7039	-205.254	4.55774	-11.1628	-213.17	7.4749	19.4235	-174.764	8.63585	7.82567	
